<?xml version="1.0" encoding="UTF-8"?>
<svg id="Layer_2" data-name="Layer 2" xmlns="http://www.w3.org/2000/svg" viewBox="0 0 334.95 334.95">
  <defs>
    <style>
      .cls-1 {
        fill: #dc4633;
      }

      .cls-1, .cls-2 {
        stroke-width: 5px;
      }

      .cls-1, .cls-2, .cls-3 {
        stroke: #221f20;
        stroke-miterlimit: 10;
      }

      .cls-4 {
        fill: #e16638;
      }

      .cls-2 {
        fill: none;
      }

      .cls-3 {
        fill: #fff;
        stroke-width: 7px;
      }
    </style>
  </defs>
  <g id="Layer_1-2" data-name="Layer 1">
    <g>
      <circle class="cls-3" cx="167.48" cy="167.48" r="163.98"/>
      <g>
        <circle class="cls-4" cx="167.48" cy="167.48" r="132.78"/>
        <g>
          <g>
            <g>
              <g>
                <ellipse class="cls-2" cx="135.34" cy="191.19" rx="34.07" ry="30.17"/>
                <ellipse class="cls-2" cx="203.49" cy="191.19" rx="34.07" ry="30.17"/>
              </g>
              <path class="cls-4" d="M91.25,206.61c26.1-4.45,52.19-8.89,78.29-13.34,24.72,3.97,49.44,7.94,74.15,11.9-2.05-16.41-4.09-32.83-6.14-49.24H101.27c-3.34,16.89-6.68,33.79-10.02,50.68Z"/>
            </g>
            <path class="cls-1" d="M132.88,221.28c-3.72,32.6,18.17,56.97,36.53,57.61,18.9,.66,43.23-23.51,40.02-57.52-3.57,.4-12.63,.94-22.4-4.01-10.99-5.57-16.01-14.59-17.57-17.69-1.57,3.3-5.12,9.55-12.16,14.59-10.21,7.31-20.97,7.2-24.43,7.03Z"/>
          </g>
          <g>
            <path d="M82.64,112.73c-10.43,5.03-17.63,15.71-17.63,28.07,0,17.2,13.94,31.14,31.14,31.14,15.61,0,28.54-11.49,30.8-26.48l-44.31-32.74Z"/>
            <path d="M255.34,112.34l-43.58,32.19c1.85,15.44,14.98,27.4,30.91,27.4,17.2,0,31.14-13.94,31.14-31.14,0-12.69-7.59-23.6-18.48-28.45Z"/>
          </g>
        </g>
      </g>
    </g>
  </g>
</svg>