<?xml version="1.0" encoding="UTF-8"?>
<svg id="Layer_2" data-name="Layer 2" xmlns="http://www.w3.org/2000/svg" viewBox="0 0 441.85 356.73">
  <defs>
    <style>
      .cls-1 {
        fill: #e2e2e2;
      }

      .cls-1, .cls-2, .cls-3 {
        stroke-width: 5px;
      }

      .cls-1, .cls-2, .cls-3, .cls-4, .cls-5 {
        stroke: #231f20;
        stroke-miterlimit: 10;
      }

      .cls-2 {
        fill: #fff;
      }

      .cls-3 {
        fill: #6bbfbf;
      }

      .cls-6 {
        fill: #f04e26;
      }

      .cls-7 {
        fill: #231f20;
      }

      .cls-4 {
        fill: #ed1c24;
      }

      .cls-4, .cls-5 {
        stroke-width: 4px;
      }

      .cls-5 {
        fill: none;
      }
    </style>
  </defs>
  <g id="Layer_1-2" data-name="Layer 1">
    <path class="cls-1" d="M232.7,305.36c2.92-21.83,7.41-37.87,11.75-37.82,4.33,.04,8.5,16.1,11.02,37.82,9.51,3.26,16.69,9.96,17.63,17.63,1.54,12.68-14.46,24.35-28.64,24.24-13.38-.1-28.95-10.73-27.91-23.5,.63-7.73,7.22-14.68,16.16-18.36Z"/>
    <path class="cls-2" d="M2.57,161.02c-.56-19.13,2.47-34.89,5.32-45.56,0,0,6.81-23.5,22.43-44.86C66.25,21.45,139.76,7.82,148.19,6.36l-53.97,286.14c-13.03-5.19-52.26-22.8-74.93-65.28C4.09,198.72,2.87,171.31,2.57,161.02Z"/>
    <path class="cls-3" d="M15.13,161.02c-.11-9.89,.25-63.52,40.59-106.45C78.79,30.03,104.44,20.14,120.07,14.31,153.39,1.89,181.17,2.24,211.56,2.63c20.92,.27,50.49,2.39,85.39,10.86-6.7,4.01-79.9,49.58-86.14,139.71-6.59,95.22,67.69,151.66,72.53,155.2-27.29,7.85-69.66,15.45-119.07,5.94-31.57-6.08-82.56-15.95-117.8-61.42-28.81-37.17-31.18-77.85-31.34-91.9Z"/>
    <path class="cls-1" d="M46.82,305.36c2.92-21.83,7.41-37.87,11.75-37.82,4.33,.04,8.5,16.1,11.02,37.82,9.51,3.26,16.69,9.96,17.63,17.63,1.54,12.68-14.46,24.35-28.64,24.24-13.38-.1-28.95-10.73-27.91-23.5,.63-7.73,7.22-14.68,16.16-18.36Z"/>
    <path class="cls-1" d="M175.78,312.36c2.92-21.83,7.41-37.87,11.75-37.82,4.33,.04,8.5,16.1,11.02,37.82,9.51,3.26,16.69,9.96,17.63,17.63,1.54,12.68-14.46,24.35-28.64,24.24-13.38-.1-28.95-10.73-27.91-23.5,.63-7.73,7.22-14.68,16.16-18.36Z"/>
    <path class="cls-1" d="M371.38,305.54c2.92-21.83,7.41-37.87,11.75-37.82,4.33,.04,8.5,16.1,11.02,37.82,9.51,3.26,16.69,9.96,17.63,17.63,1.54,12.68-14.46,24.35-28.64,24.24-13.38-.1-28.95-10.73-27.91-23.5,.63-7.73,7.22-14.68,16.16-18.36Z"/>
    <path class="cls-2" d="M155.58,161.02c.26-11.65,2.59-55.8,35.31-95.48,10.26-12.44,39.48-47.87,87.65-51.71,24.65-1.96,44.57,5.13,55.6,10.11-77.07,19.34-124.7,86.77-116.77,149.43,8.02,63.39,69.62,95.92,75.67,99l41.1,25.74c-11.19,4.65-33.11,12.02-61.13,9.93-8.01-.6-29.75-2.95-50.6-14.23-47.09-25.47-67.93-84.75-66.84-132.79Z"/>
    <ellipse class="cls-2" cx="313.64" cy="161.02" rx="125.71" ry="138.94"/>
    <ellipse class="cls-6" cx="315.64" cy="162.75" rx="90.7" ry="104.16"/>
    <ellipse class="cls-7" cx="264.63" cy="139.38" rx="20.9" ry="24.11"/>
    <ellipse class="cls-7" cx="370.64" cy="137.31" rx="20.9" ry="24.11"/>
    <g>
      <path class="cls-5" d="M281.53,178.19c2.61,8.4,9.37,14.7,17.45,16.08,10.38,1.77,21.37-4.84,25.26-16.08v0c3.84,10.23,13.9,16.42,23.87,15.16,8.09-1.02,15.06-6.83,18.03-14.89"/>
      <path class="cls-4" d="M292.87,192.17c-2.12,26.46,16.73,44.82,30.97,44.1,13.55-.68,29.51-18.95,27.21-43.51-1.29,.41-8.72,2.62-16.46-1.56-7.78-4.21-9.99-11.7-10.34-13-.43,1.38-3.12,9.65-11.87,13.87-9.47,4.56-18.32,.66-19.51,.11Z"/>
    </g>
  </g>
</svg>