<?xml version="1.0" encoding="UTF-8"?>
<svg id="Layer_2" data-name="Layer 2" xmlns="http://www.w3.org/2000/svg" viewBox="0 0 431.75 336.01">
  <defs>
    <style>
      .cls-1 {
        fill: #ebb456;
      }

      .cls-2 {
        fill: #664637;
      }

      .cls-3 {
        fill: #d44e34;
      }

      .cls-4 {
        fill: #d84b38;
      }

      .cls-5 {
        fill: #db6139;
      }

      .cls-6 {
        fill: #d66639;
      }
    </style>
  </defs>
  <g id="Layer_1-2" data-name="Layer 1">
    <circle class="cls-4" cx="77.12" cy="280.45" r="15.99"/>
    <path class="cls-2" d="M130.07,147.12c1.88,9.77,5.98,15.85,9,19.34,13.9,16.03,41.63,19.45,69.42,8.38,0,8.52,0,17.03,0,25.55-18.23,4.23-32.95,3.06-41.69,1.7-14.43-2.25-37.34-5.81-50.2-24.67-7.81-11.46-8.68-23.81-8.63-30.3,7.37,0,14.73,0,22.1,0Z"/>
    <rect class="cls-2" x="208.01" y="0" width="22.1" height="296.14" rx="11.05" ry="11.05"/>
    <rect class="cls-2" x="82.06" y="52.81" width="22.1" height="149.96" rx="11.05" ry="11.05"/>
    <path class="cls-3" d="M187.43,40.27c-1.26-2.8-5.44-12.93-1.18-23.07C193.04,1.03,214.84,.18,218.19,.05c3.09-.12,25.81-1.01,34.01,15.38,5.42,10.82,1.04,22.29,0,24.84,2.73-2.39,10.97-8.97,22.77-9.17,12.08-.21,27.72,6.27,31.94,20.41,2.35,7.86,1.16,18.08-5.62,25.43-7.63,8.28-20.36,10.76-31.64,5.88,9.55,4.46,16.41,12.52,16.4,20.95,0,13.23-16.88,20.99-27.09,22.77-12.69,2.21-22.93-3.45-26.58-5.53-9.04-5.17-14.02-12.26-16.27-15.97-2.08,3.93-7.15,12.12-17.05,17.46-2,1.08-20.89,10.88-36.28,.78-.8-.52-15.82-10.7-12.87-24.57,1.95-9.14,10.4-13.78,12.08-14.66-12.45,1.92-24.31-4.09-28.98-14.2-6.41-13.87,4.48-27.33,5.62-28.69,8.98-10.74,22.19-10.98,25.14-10.94,13.31,.16,21.86,8.26,23.66,10.06Z"/>
    <path class="cls-3" d="M59.36,136.08c-1.33-2.94-5.72-13.61-1.24-24.27,7.14-17.01,30.08-17.91,33.6-18.05,3.25-.13,27.16-1.06,35.78,16.18,5.7,11.39,1.1,23.45,0,26.14,2.87-2.51,11.55-9.43,23.96-9.65,12.71-.22,29.17,6.6,33.6,21.47,2.47,8.27,1.22,19.03-5.91,26.76-8.03,8.71-21.42,11.32-33.29,6.18,10.05,4.7,17.26,13.17,17.26,22.05,0,13.92-17.76,22.08-28.5,23.95-13.35,2.33-24.13-3.63-27.96-5.82-9.51-5.44-14.75-12.9-17.11-16.8-2.19,4.13-7.52,12.76-17.94,18.37-2.1,1.13-21.97,11.44-38.17,.82-.84-.55-16.65-11.26-13.54-25.85,2.05-9.62,10.94-14.5,12.71-15.43-13.1,2.02-25.58-4.3-30.49-14.94-6.74-14.59,4.72-28.75,5.91-30.18,9.45-11.3,23.35-11.55,26.45-11.51,14,.16,22.99,8.69,24.89,10.58Z"/>
    <rect class="cls-2" x="327.47" y="80.52" width="22.1" height="175.65" rx="11.05" ry="11.05"/>
    <path class="cls-2" d="M327.47,245.12c-1.88,9.77-5.98,15.85-9,19.34-13.9,16.03-41.63,19.45-69.42,8.38v25.55c18.23,4.23,32.95,3.06,41.69,1.7,14.43-2.25,37.34-5.81,50.2-24.67,7.81-11.46,8.68-23.81,8.63-30.3h-22.1Z"/>
    <path class="cls-3" d="M183.14,238c-1.41-3.13-6.09-14.48-1.32-25.83,7.6-18.11,32.02-19.06,35.76-19.21,3.46-.13,28.9-1.13,38.08,17.22,6.06,12.12,1.17,24.95,0,27.82,3.06-2.68,12.29-10.04,25.5-10.27,13.53-.23,31.04,7.02,35.76,22.85,2.63,8.81,1.29,20.25-6.29,28.48-8.54,9.27-22.8,12.05-35.43,6.58,10.69,5,18.37,14.02,18.37,23.46,0,14.82-18.91,23.5-30.33,25.49-14.21,2.48-25.68-3.86-29.76-6.2-10.12-5.78-15.7-13.73-18.21-17.88-2.33,4.4-8.01,13.58-19.09,19.55-2.24,1.2-23.39,12.18-40.62,.87-.9-.59-17.72-11.99-14.41-27.52,2.18-10.24,11.65-15.43,13.52-16.42-13.95,2.15-27.23-4.58-32.45-15.9-7.17-15.53,5.02-30.6,6.29-32.12,10.06-12.03,24.85-12.29,28.15-12.25,14.9,.18,24.47,9.25,26.49,11.26Z"/>
    <path class="cls-3" d="M306.02,136.3c-1.32-2.92-5.67-13.48-1.23-24.05,7.08-16.86,29.81-17.75,33.3-17.88,3.22-.13,26.91-1.05,35.46,16.03,5.65,11.28,1.09,23.24,0,25.9,2.85-2.49,11.44-9.35,23.74-9.56,12.6-.22,28.9,6.54,33.3,21.28,2.45,8.2,1.21,18.86-5.86,26.52-7.96,8.63-21.23,11.22-32.99,6.13,9.96,4.65,17.11,13.05,17.1,21.85,0,13.8-17.6,21.89-28.24,23.74-13.23,2.31-23.91-3.6-27.71-5.77-9.43-5.39-14.62-12.78-16.96-16.65-2.17,4.1-7.46,12.64-17.78,18.2-2.08,1.12-21.78,11.34-37.82,.81-.83-.55-16.5-11.16-13.42-25.62,2.03-9.53,10.85-14.37,12.59-15.29-12.99,2-25.35-4.26-30.22-14.8-6.68-14.46,4.67-28.49,5.86-29.91,9.37-11.2,23.14-11.45,26.21-11.41,13.88,.16,22.79,8.62,24.67,10.48Z"/>
    <path class="cls-1" d="M218.53,44.67c-2.14,3.46-6.34,9.24-13.57,14.01-9.07,5.99-17.96,7.13-22.19,7.4,2.14,.57,9.25,2.74,14.01,9.73,2.68,3.93,3.54,7.81,3.86,10.12,3.32-1.96,9.85-5.22,18.71-5.84,10.37-.73,18.27,2.55,21.8,4.28-.4-.74-3.05-5.87-.78-11.68,2.73-6.97,10.04-8.47,10.51-8.56-3.91-.34-11.54-1.54-19.46-6.62-6.81-4.36-10.84-9.66-12.9-12.84Z"/>
    <path class="cls-1" d="M91.74,140.31c-2.14,3.46-6.34,9.24-13.57,14.01-9.07,5.99-17.96,7.13-22.19,7.4,2.14,.57,9.25,2.74,14.01,9.73,2.68,3.93,3.54,7.81,3.86,10.12,3.32-1.96,9.85-5.22,18.71-5.84,10.37-.73,18.27,2.55,21.8,4.28-.4-.74-3.05-5.87-.78-11.68,2.73-6.97,10.04-8.47,10.51-8.56-3.91-.34-11.54-1.54-19.46-6.62-6.81-4.36-10.84-9.66-12.9-12.84Z"/>
    <path class="cls-1" d="M338.49,144.96c-2.14,3.46-6.34,9.24-13.57,14.01-9.07,5.99-17.96,7.13-22.19,7.4,2.14,.57,9.25,2.74,14.01,9.73,2.68,3.93,3.54,7.81,3.86,10.12,3.32-1.96,9.85-5.22,18.71-5.84,10.37-.73,18.27,2.55,21.8,4.28-.4-.74-3.05-5.87-.78-11.68,2.73-6.97,10.04-8.47,10.51-8.56-3.91-.34-11.54-1.54-19.46-6.62-6.81-4.36-10.84-9.66-12.9-12.84Z"/>
    <path class="cls-1" d="M220.76,243.83c-2.14,3.46-6.34,9.24-13.57,14.01-9.07,5.99-17.96,7.13-22.19,7.4,2.14,.57,9.25,2.74,14.01,9.73,2.68,3.93,3.54,7.81,3.86,10.12,3.32-1.96,9.85-5.22,18.71-5.84,10.37-.73,18.27,2.55,21.8,4.28-.4-.74-3.05-5.87-.78-11.68,2.73-6.97,10.04-8.47,10.51-8.56-3.91-.34-11.54-1.54-19.46-6.62-6.81-4.36-10.84-9.66-12.9-12.84Z"/>
    <circle class="cls-6" cx="112.93" cy="303.82" r="28.17"/>
    <circle class="cls-6" cx="352.8" cy="293.3" r="22.75"/>
    <circle class="cls-5" cx="352.8" cy="73.82" r="14.56"/>
  </g>
</svg>